# Blender 4.0.2
# www.blender.org
mtllib cube.mtl
o 立方体
v 0.666667 -0.666667 -0.666667
v 0.666667 0.666667 -0.666667
v 0.666667 -0.666667 0.666667
v 0.666667 0.666667 0.666667
v -0.666667 -0.666667 -0.666667
v -0.666667 0.666667 -0.666667
v -0.666667 -0.666667 0.666667
v -0.666667 0.666667 0.666667
vn 0.8881 0.4247 -0.1759
vn 0.8881 -0.1760 0.4247
vn 0.8881 -0.3250 -0.3251
vn 0.1759 0.4247 0.8881
vn -0.4247 -0.1760 0.8881
vn 0.3251 -0.3250 0.8881
vn -0.8881 0.4247 0.1759
vn -0.8881 -0.1760 -0.4247
vn -0.8881 -0.3250 0.3251
vn -0.1759 0.4247 -0.8881
vn 0.4247 -0.1760 -0.8881
vn -0.3251 -0.3250 -0.8881
vn -0.4247 -0.8881 0.1759
vn 0.1760 -0.8881 -0.4247
vn 0.3250 -0.8881 0.3251
vn 0.4247 0.8881 0.1759
vn -0.1760 0.8881 -0.4247
vn -0.3250 0.8881 0.3251
vn 0.8881 0.1760 -0.4247
vn 0.8881 0.3250 0.3251
vn 0.8881 -0.4247 0.1759
vn 0.4247 0.1760 0.8881
vn -0.3251 0.3250 0.8881
vn -0.1759 -0.4247 0.8881
vn -0.8881 0.1760 0.4247
vn -0.8881 0.3250 -0.3251
vn -0.8881 -0.4247 -0.1759
vn -0.4247 0.1760 -0.8881
vn 0.3251 0.3250 -0.8881
vn 0.1759 -0.4247 -0.8881
vn -0.1760 -0.8881 0.4247
vn -0.3250 -0.8881 -0.3251
vn 0.4247 -0.8881 -0.1759
vn 0.1760 0.8881 0.4247
vn 0.3250 0.8881 -0.3251
vn -0.4247 0.8881 -0.1759
vt 0.625000 0.000000
vt 0.375000 0.250000
vt 0.375000 0.000000
vt 0.625000 0.250000
vt 0.375000 0.500000
vt 0.625000 0.500000
vt 0.375000 0.750000
vt 0.625000 0.750000
vt 0.375000 1.000000
vt 0.125000 0.750000
vt 0.125000 0.500000
vt 0.875000 0.500000
vt 0.625000 1.000000
vt 0.875000 0.750000
s 0
f 2/1/1 3/2/2 1/3/3
f 4/4/4 7/5/5 3/2/6
f 8/6/7 5/7/8 7/5/9
f 6/8/10 1/9/11 5/7/12
f 7/5/13 1/10/14 3/11/15
f 4/12/16 6/8/17 8/6/18
f 2/1/19 4/4/20 3/2/21
f 4/4/22 8/6/23 7/5/24
f 8/6/25 6/8/26 5/7/27
f 6/8/28 2/13/29 1/9/30
f 7/5/31 5/7/32 1/10/33
f 4/12/34 2/14/35 6/8/36
