# Blender 4.0.2
# www.blender.org
mtllib 一个平面.mtl
o 平面
v 1.061840 1.080347 4.642599
v -0.868160 1.080347 4.642599
v 1.061840 -0.849653 4.642599
v -0.868160 -0.849653 4.642599
v 1.061840 0.115347 4.642599
v 0.096840 1.080347 4.642599
v -0.868160 0.115347 4.642599
v 0.109125 -1.887771 4.642599
v 0.096840 0.115347 4.642599
vn -0.0000 -0.0000 1.0000
vt 0.500000 0.500000
vt 1.000000 1.000000
vt 0.500000 1.000000
vt 0.000000 1.000000
vt 0.000000 0.500000
vt 0.500000 0.000000
vt 0.000000 0.000000
vt 1.000000 0.000000
vt 1.000000 0.500000
s 0
f 9/1/1 4/2/1 8/3/1
f 9/1/1 3/4/1 5/5/1
f 6/6/1 5/5/1 1/7/1
f 2/8/1 9/1/1 6/6/1
f 9/1/1 7/9/1 4/2/1
f 9/1/1 8/3/1 3/4/1
f 6/6/1 9/1/1 5/5/1
f 2/8/1 7/9/1 9/1/1
