# Blender 4.0.2
# www.blender.org
mtllib 三棱椎.mtl
o 锥体
v 0.000000 -1.000000 1.000000
v -0.866025 -1.000000 -0.500000
v 0.866025 -1.000000 -0.500000
v 0.000000 1.000000 0.000000
vn -0.5181 -0.1395 0.8439
vn -0.5330 0.7882 0.3077
vn -0.9899 -0.1395 0.0268
vn -0.0000 -0.8570 0.5153
vn -0.4463 -0.8570 -0.2577
vn 0.4463 -0.8570 -0.2576
vn -0.4717 -0.1395 -0.8706
vn 0.0001 0.7882 -0.6154
vn 0.4717 -0.1395 -0.8706
vn 0.9899 -0.1395 0.0268
vn 0.5330 0.7882 0.3077
vn 0.5181 -0.1395 0.8439
vt 0.250000 0.490000
vt 0.250000 0.250000
vt 0.457846 0.130000
vt 0.750000 0.490000
vt 0.957846 0.130000
vt 0.542154 0.130000
vt 0.042154 0.130000
s 0
f 1/1/1 4/2/2 2/3/3
f 1/4/4 2/5/5 3/6/6
f 2/3/7 4/2/8 3/7/9
f 3/7/10 4/2/11 1/1/12
