# Blender 4.0.2
# www.blender.org
mtllib 垂直棱锥.mtl
o 锥体
v -0.420290 32.240067 -7.035604
v -6.238626 43.671936 -7.582176
v 6.582067 42.986980 -7.592582
v 0.025617 40.367004 7.403454
vn -0.8640 -0.4270 0.2670
vn -0.0035 -0.0495 -0.9988
vn 0.0525 0.9796 0.1941
vn 0.8140 -0.5166 0.2656
vt 0.250000 0.490000
vt 0.250000 0.250000
vt 0.457846 0.130000
vt 0.750000 0.490000
vt 0.957846 0.130000
vt 0.542154 0.130000
vt 0.042154 0.130000
s 0
f 1/1/1 4/2/1 2/3/1
f 1/4/2 2/5/2 3/6/2
f 2/3/3 4/2/3 3/7/3
f 3/7/4 4/2/4 1/1/4
