# Blender 4.0.2
# www.blender.org
mtllib 平滑正方体.mtl
o 立方体
v -1.993652 42.488010 -5.554486
v 3.509388 47.387917 -4.808234
v 0.670266 38.623684 0.174383
v 6.173306 43.523590 0.920636
v -6.173306 46.476410 -0.920636
v -0.670266 51.376316 -0.174383
v -3.509388 42.612083 4.808234
v 1.993652 47.511990 5.554486
v -0.661693 40.555847 -2.690052
v 0.757868 44.937962 -5.181360
v 4.841348 45.455753 -1.943799
v 3.421786 41.073639 0.547509
v -1.419561 40.617886 2.491309
v 4.083479 45.517792 3.237561
v -0.757868 45.062038 5.181360
v -4.841348 44.544247 1.943799
v 0.661693 49.444153 2.690052
v -3.421786 48.926361 -0.547509
v -4.083479 44.482208 -3.237561
v 1.419561 49.382114 -2.491309
v 2.751520 47.449951 0.373126
v -2.751520 42.550049 -0.373126
v -1.331959 46.932163 -2.864435
v -2.089827 46.994202 2.316926
v 1.331959 43.067837 2.864435
v 2.089827 43.005798 -2.316926
vn 0.8365 -0.3781 -0.3966
vn 0.7828 -0.5439 -0.3024
vn 0.5644 -0.5385 -0.6257
vn 0.4706 -0.1597 0.8678
vn 0.2875 -0.1770 0.9413
vn 0.3597 -0.5218 0.7735
vn -0.3440 0.8167 0.4634
vn -0.4984 0.7971 0.3410
vn -0.5644 0.5385 0.6257
vn 0.0219 0.5983 -0.8010
vn -0.0031 0.4302 -0.9027
vn -0.3597 0.5218 -0.7735
vn -0.9424 -0.3329 -0.0338
vn -0.9137 -0.3353 -0.2297
vn -0.7430 -0.6616 -0.1008
vn 0.8047 0.5326 -0.2623
vn 0.6753 0.6811 -0.2830
vn 0.7430 0.6616 0.1008
vn 0.4078 0.9039 -0.1289
vn 0.4705 0.8173 0.3325
vn 0.8753 0.3650 0.3171
vn 0.4422 0.8620 0.2478
vn 0.5934 0.5930 0.5443
vn 0.9628 0.2671 -0.0402
vn 0.8241 0.4116 0.3891
vn -0.7133 -0.4607 -0.5281
vn -0.4705 -0.8173 -0.3326
vn -0.6094 -0.7508 0.2548
vn -0.5135 -0.7586 -0.4010
vn -0.3595 -0.9322 -0.0414
vn -0.8363 -0.4506 0.3123
vn -0.5488 -0.8109 0.2029
vn -0.2105 0.1183 -0.9704
vn -0.6167 0.2289 -0.7532
vn -0.4674 0.7467 -0.4734
vn -0.5511 0.1842 -0.8139
vn -0.7444 0.4234 -0.5163
vn -0.1031 0.8391 -0.5341
vn -0.5483 0.6882 -0.4752
vn -0.7847 0.5834 0.2094
vn -0.8058 0.2444 0.5395
vn -0.3148 0.3702 0.8740
vn -0.8317 0.3046 0.4642
vn -0.6258 0.0936 0.7744
vn -0.1223 0.6675 0.7345
vn -0.3837 0.2979 0.8741
vn -0.0510 -0.3511 0.9350
vn 0.0479 -0.7352 0.6761
vn 0.6145 -0.6156 0.4933
vn 0.0018 -0.6733 0.7394
vn 0.2614 -0.8535 0.4508
vn 0.7343 -0.2771 0.6197
vn 0.5483 -0.6881 0.4752
vn 0.5232 -0.8163 -0.2449
vn 0.2370 -0.7507 -0.6166
vn 0.4620 -0.2391 -0.8540
vn 0.2823 -0.7938 -0.5387
vn 0.1427 -0.5237 -0.8399
vn 0.7535 -0.1055 -0.6489
vn 0.3838 -0.2978 -0.8741
vn 0.7605 -0.2013 -0.6174
vn 0.8596 -0.4328 -0.2714
vn 0.5808 -0.7559 -0.3021
vn 0.6629 -0.2908 0.6899
vn 0.3775 -0.0733 0.9231
vn 0.0501 -0.3485 0.9360
vn -0.2111 0.6904 0.6919
vn -0.3766 0.8629 0.3369
vn -0.7279 0.6249 0.2821
vn -0.1135 0.7800 -0.6154
vn 0.1055 0.5034 -0.8576
vn -0.1973 0.2175 -0.9559
vn -0.8595 -0.4638 0.2148
vn -0.9602 -0.2429 -0.1376
vn -0.7636 -0.4717 -0.4410
vn 0.9307 0.3605 -0.0616
vn 0.7264 0.5821 -0.3653
vn 0.4976 0.8575 -0.1309
vn 0.5488 0.8109 -0.2029
vn 0.3569 0.9081 0.2192
vn 0.6977 0.5414 0.4692
vn 0.5683 0.6899 0.4485
vn 0.9119 0.2712 0.3079
vn 0.9025 0.4051 -0.1463
vn -0.8241 -0.4116 -0.3891
vn -0.4835 -0.7245 -0.4913
vn -0.4593 -0.8872 0.0435
vn -0.4306 -0.8896 -0.1524
vn -0.6064 -0.7144 0.3491
vn -0.9025 -0.4052 0.1464
vn -0.1164 0.2760 -0.9541
vn -0.5358 0.0877 -0.8398
vn -0.6615 0.5339 -0.5266
vn -0.6866 0.3659 -0.6283
vn -0.4284 0.8085 -0.4035
vn -0.0480 0.7353 -0.6761
vn -0.6591 0.6972 0.2820
vn -0.8800 0.2890 0.3768
vn -0.5444 0.1980 0.8151
vn -0.6988 0.1784 0.6927
vn -0.2177 0.3731 0.9019
vn -0.2370 0.7507 0.6166
vn 0.1163 -0.2760 0.9541
vn -0.0954 -0.6497 0.7542
vn 0.3772 -0.7871 0.4880
vn 0.1941 -0.8044 0.5615
vn 0.6899 -0.5757 0.4390
vn 0.6167 -0.2289 0.7532
vn 0.6590 -0.6972 -0.2820
vn 0.2489 -0.8510 -0.4624
vn 0.2600 -0.4512 -0.8537
vn 0.2063 -0.6170 -0.7595
vn 0.4792 -0.1402 -0.8664
vn 0.8057 -0.2443 -0.5395
vt 0.625000 0.125000
vt 0.500000 0.250000
vt 0.500000 0.125000
vt 0.625000 0.375000
vt 0.500000 0.500000
vt 0.500000 0.375000
vt 0.625000 0.625000
vt 0.500000 0.750000
vt 0.500000 0.625000
vt 0.625000 0.875000
vt 0.500000 1.000000
vt 0.500000 0.875000
vt 0.375000 0.625000
vt 0.250000 0.750000
vt 0.250000 0.625000
vt 0.875000 0.625000
vt 0.750000 0.750000
vt 0.750000 0.625000
vt 0.625000 0.750000
vt 0.750000 0.500000
vt 0.625000 0.500000
vt 0.875000 0.500000
vt 0.125000 0.750000
vt 0.125000 0.625000
vt 0.250000 0.500000
vt 0.125000 0.500000
vt 0.375000 0.500000
vt 0.375000 1.000000
vt 0.375000 0.875000
vt 0.375000 0.750000
vt 0.375000 0.375000
vt 0.375000 0.250000
vt 0.625000 0.250000
vt 0.375000 0.125000
vt 0.500000 0.000000
vt 0.375000 0.000000
vt 0.625000 0.000000
vt 0.625000 1.000000
vt 0.875000 0.750000
s 0
f 11/1/1 12/2/2 26/3/3
f 14/4/4 15/5/5 25/6/6
f 17/7/7 18/8/8 24/9/9
f 20/10/10 10/11/11 23/12/12
f 16/13/13 19/14/14 22/15/15
f 11/16/16 20/17/17 21/18/18
f 21/18/18 6/19/19 17/7/20
f 14/20/21 17/7/22 8/21/23
f 4/22/24 21/18/18 14/20/25
f 22/15/15 1/23/26 9/24/27
f 13/25/28 9/24/29 3/26/30
f 7/27/31 22/15/15 13/25/32
f 23/12/12 1/28/33 19/29/34
f 18/8/35 19/29/36 5/30/37
f 6/19/38 23/12/12 18/8/39
f 24/9/9 5/30/40 16/13/41
f 15/5/42 16/13/43 7/27/44
f 8/21/45 24/9/9 15/5/46
f 25/6/6 7/27/47 13/31/48
f 12/2/49 13/31/50 3/32/51
f 4/33/52 25/6/6 12/2/53
f 26/3/3 3/32/54 9/34/55
f 10/35/56 9/34/57 1/36/58
f 2/37/59 26/3/3 10/35/60
f 11/1/61 4/33/62 12/2/63
f 14/4/64 8/21/65 15/5/66
f 17/7/67 6/19/68 18/8/69
f 20/10/70 2/38/71 10/11/72
f 16/13/73 5/30/74 19/14/75
f 11/16/76 2/39/77 20/17/78
f 21/18/18 20/17/79 6/19/80
f 14/20/81 21/18/18 17/7/82
f 4/22/83 11/16/84 21/18/18
f 22/15/15 19/14/85 1/23/86
f 13/25/87 22/15/15 9/24/88
f 7/27/89 16/13/90 22/15/15
f 23/12/12 10/11/91 1/28/92
f 18/8/93 23/12/12 19/29/94
f 6/19/95 20/10/96 23/12/12
f 24/9/9 18/8/97 5/30/98
f 15/5/99 24/9/9 16/13/100
f 8/21/101 17/7/102 24/9/9
f 25/6/6 15/5/103 7/27/104
f 12/2/105 25/6/6 13/31/106
f 4/33/107 14/4/108 25/6/6
f 26/3/3 12/2/109 3/32/110
f 10/35/111 26/3/3 9/34/112
f 2/37/113 11/1/114 26/3/3
