# Blender 4.0.2
# www.blender.org
mtllib 正方体.mtl
o 立方体
v -2.889904 43.759499 4.160376
v -1.159693 39.917274 -0.141854
v 2.675533 46.051861 4.351348
v 4.405744 42.209637 0.049118
v -4.405744 47.790363 -0.049118
v -2.675533 43.948139 -4.351348
v 1.159693 50.082726 0.141854
v 2.889904 46.240501 -4.160376
vn 0.2517 -0.6693 0.6990
vn 0.9242 0.3807 0.0317
vn -0.2517 0.6693 -0.6990
vn -0.9242 -0.3807 -0.0317
vn -0.2873 0.6380 0.7144
vn 0.2873 -0.6380 -0.7144
vt 0.625000 0.000000
vt 0.375000 0.250000
vt 0.375000 0.000000
vt 0.625000 0.250000
vt 0.375000 0.500000
vt 0.625000 0.500000
vt 0.375000 0.750000
vt 0.625000 0.750000
vt 0.375000 1.000000
vt 0.125000 0.750000
vt 0.125000 0.500000
vt 0.875000 0.500000
vt 0.625000 1.000000
vt 0.875000 0.750000
s 0
usemtl 材质
f 2/1/1 3/2/1 1/3/1
f 4/4/2 7/5/2 3/2/2
f 8/6/3 5/7/3 7/5/3
f 6/8/4 1/9/4 5/7/4
f 7/5/5 1/10/5 3/11/5
f 4/12/6 6/8/6 8/6/6
f 2/1/1 4/4/1 3/2/1
f 4/4/2 8/6/2 7/5/2
f 8/6/3 6/8/3 5/7/3
f 6/8/4 2/13/4 1/9/4
f 7/5/5 5/7/5 1/10/5
f 4/12/6 2/14/6 6/8/6
