# Blender 4.0.2
# www.blender.org
mtllib 渲染立方体.mtl
o 立方体
v -0.389963 -0.686043 5.638408
v 0.128021 -0.038907 5.113975
v 0.315249 -0.698109 6.320061
v 0.833234 -0.050973 5.795629
v -0.833234 0.050973 6.110044
v -0.315249 0.698109 5.585612
v -0.128021 0.038907 6.791698
v 0.389963 0.686043 6.267265
vn 0.4519 -0.7514 -0.4808
vn 0.7190 -0.0123 0.6949
vn -0.4519 0.7514 0.4808
vn -0.7190 0.0123 -0.6949
vn -0.5281 -0.6598 0.5347
vn 0.5281 0.6598 -0.5347
vt 0.625000 0.000000
vt 0.375000 0.250000
vt 0.375000 0.000000
vt 0.625000 0.250000
vt 0.375000 0.500000
vt 0.625000 0.500000
vt 0.375000 0.750000
vt 0.625000 0.750000
vt 0.375000 1.000000
vt 0.125000 0.750000
vt 0.125000 0.500000
vt 0.875000 0.500000
vt 0.625000 1.000000
vt 0.875000 0.750000
s 0
f 2/1/1 3/2/1 1/3/1
f 4/4/2 7/5/2 3/2/2
f 8/6/3 5/7/3 7/5/3
f 6/8/4 1/9/4 5/7/4
f 7/5/5 1/10/5 3/11/5
f 4/12/6 6/8/6 8/6/6
f 2/1/1 4/4/1 3/2/1
f 4/4/2 8/6/2 7/5/2
f 8/6/3 6/8/3 5/7/3
f 6/8/4 2/13/4 1/9/4
f 7/5/5 5/7/5 1/10/5
f 4/12/6 2/14/6 6/8/6
