# Blender 4.0.2
# www.blender.org
mtllib materUV.mtl
o 立方体
v -1.064756 30.896847 -1.183129
v 1.517421 36.506653 -4.992432
v 0.528022 34.357170 4.992432
v 3.110198 39.966976 1.183129
v -8.468450 34.304745 -1.183129
v -5.886273 39.914551 -4.992432
v -6.875673 37.765068 4.992432
v -4.293497 43.374874 1.183129
vn 0.9084 -0.4181 -0.0000
vn 0.2195 0.4769 0.8511
vn -0.9084 0.4181 -0.0000
vn -0.2195 -0.4769 -0.8511
vn -0.3559 -0.7731 0.5250
vn 0.3559 0.7731 -0.5250
vt 0.625000 0.000000
vt 0.375000 0.250000
vt 0.375000 0.000000
vt 0.625000 0.250000
vt 0.375000 0.500000
vt 0.625000 0.500000
vt 0.375000 0.750000
vt 0.625000 0.750000
vt 0.375000 1.000000
vt 0.125000 0.750000
vt 0.125000 0.500000
vt 0.875000 0.500000
vt 0.625000 1.000000
vt 0.875000 0.750000
s 0
usemtl 材质.012
f 2/1/1 3/2/1 1/3/1
f 4/4/2 7/5/2 3/2/2
f 8/6/3 5/7/3 7/5/3
f 6/8/4 1/9/4 5/7/4
f 7/5/5 1/10/5 3/11/5
f 4/12/6 6/8/6 8/6/6
f 2/1/1 4/4/1 3/2/1
f 4/4/2 8/6/2 7/5/2
f 8/6/3 6/8/3 5/7/3
f 6/8/4 2/13/4 1/9/4
f 7/5/5 5/7/5 1/10/5
f 4/12/6 2/14/6 6/8/6
